<?xml version="1.0" encoding="UTF-8"?>
<svg width="512" height="512" viewBox="0 0 512 512" xmlns="http://www.w3.org/2000/svg">
  <!-- Fond blanc -->
  <rect width="512" height="512" fill="white"/>
  
  <!-- Cercle bleu -->
  <circle cx="256" cy="256" r="200" fill="#007BFF"/>
  
  <!-- Symbole de radio -->
  <path d="M256 160c-53 0-96 43-96 96s43 96 96 96 96-43 96-96-43-96-96-96zm0 160c-35.3 0-64-28.7-64-64s28.7-64 64-64 64 28.7 64 64-28.7 64-64 64z" fill="white"/>
  
  <!-- Antenne -->
  <path d="M256 120v40" stroke="white" stroke-width="20" stroke-linecap="round"/>
  
  <!-- Symbole de pompier -->
  <path d="M256 200l-40 40h80l-40-40z" fill="white"/>
  <path d="M256 200v72" stroke="white" stroke-width="20" stroke-linecap="round"/>
</svg> 